<?xml version="1.0" encoding="utf-8"?>
<!-- Generator: Adobe Illustrator 22.0.1, SVG Export Plug-In . SVG Version: 6.00 Build 0)  -->
<svg version="1.1" id="Layer_1" xmlns="http://www.w3.org/2000/svg" xmlns:xlink="http://www.w3.org/1999/xlink" x="0px" y="0px"
	 viewBox="0 0 73.9 85.1" style="enable-background:new 0 0 73.9 85.1;" xml:space="preserve">
<style type="text/css">
	.st0{fill:none;stroke:#FFFFFF;stroke-width:4.5;stroke-miterlimit:10;}
</style>
<g>
	<path class="st0" d="M71.7,18.2C71.4,12,69,8.5,65.3,5.9c-3.7-2.5-9-3.7-14.2-3.7c-4.8,0-9.6,1-12.8,2.5L37,5.3l-1.3-0.6
		c-2.6-1.2-6.2-2-10-2.3l-6.6,0.1C15.2,2.9,11.5,4,8.6,5.9c-3.7,2.6-6.1,6.1-6.4,12.3c0,0.5,0,1,0,1.4c0.1,8.7,2.1,11.9,4.5,16.3
		c2.5,4.3,5.4,9.9,5.3,20.1c0,11.9,2,18.9,4.2,22.6c2.2,3.7,3,4.3,5.4,4.3c2.6,0,3.5-2.6,3.6-4c0.5-5-0.4-12.9,2.1-21.3
		c0.7-2.3,1.6-5.2,3.3-7.9c2.4-3.5,8.7-6.3,12.6,0c1.7,2.7,2.6,5.5,3.3,7.9c1.9,6.4,2.5,13.1,2,18.2c-0.6,7.1,3.5,7.1,3.7,7.1
		c2.2,0,3.2-0.6,5.4-4.3c2.2-3.7,4.2-10.7,4.2-22.6c-0.1-10.3,2.8-15.8,5.3-20.1c2.4-4.4,4.4-7.5,4.5-16.3
		C71.7,19.2,71.7,18.7,71.7,18.2z"/>
	<line class="st0" x1="37" y1="5.3" x2="45.8" y2="10"/>
	<polyline class="st0" points="19.1,2.4 32.4,16.2 17,16.2 29.3,29.7 	"/>
</g>
</svg>
