<?xml version="1.0" encoding="utf-8"?>
<!-- Generator: Adobe Illustrator 22.0.1, SVG Export Plug-In . SVG Version: 6.00 Build 0)  -->
<svg version="1.1" id="Layer_1" xmlns="http://www.w3.org/2000/svg" xmlns:xlink="http://www.w3.org/1999/xlink" x="0px" y="0px"
	 viewBox="0 0 87.4 86.6" style="enable-background:new 0 0 87.4 86.6;" xml:space="preserve">
<style type="text/css">
	.st0{fill:none;stroke:#FFFFFF;stroke-width:4.5;stroke-miterlimit:10;}
	.st1{fill:none;stroke:#FFFFFF;stroke-width:4.5;stroke-linecap:round;stroke-linejoin:round;stroke-miterlimit:10;}
</style>
<path class="st0" d="M50,17.3c-4.4,4.4-11.6,4.4-16.1,0c-3.6-3.6-3.6-9.3,0-12.9c2.8-2.8,7.5-2.8,10.3,0c2.3,2.3,2.3,6,0,8.2
	c-1.8,1.8-4.8,1.8-6.6,0"/>
<path class="st0" d="M62.2,49.3c0,4.2-8.1,13.7-18.1,13.7c-10,0-18.1-9.4-18.1-13.7c0-4.2,8.1-1.7,18.1-1.7
	C54.1,47.6,62.2,45,62.2,49.3z"/>
<path class="st0" d="M44.1,48.4v4.2c0,1.9-1.6,3.5-3.5,3.5c-1.9,0-3.5-1.6-3.5-3.5v-4.2"/>
<path class="st0" d="M51,48.4v4.2c0,1.9-1.6,3.5-3.5,3.5c-1.9,0-3.5-1.6-3.5-3.5v-4.2"/>
<path class="st0" d="M29.8,36.8c0,0.5-0.4,1-1,1c-0.5,0-1-0.4-1-1c0-0.5,0.4-1,1-1C29.3,35.8,29.8,36.3,29.8,36.8z"/>
<path class="st0" d="M61.9,36.8c0,0.5-0.4,1-1,1c-0.5,0-1-0.4-1-1c0-0.5,0.4-1,1-1C61.4,35.8,61.9,36.3,61.9,36.8z"/>
<path class="st0" d="M75.1,33.1c0,0,8.4-5.8,9.9,2.9c1.5,8.7-8.4,10.1-8.4,10.1"/>
<path class="st1" d="M12.3,33.1c0,0-8.5-5.8-9.9,2.9c-1.4,8.7,8.4,10.1,8.4,10.1"/>
<path class="st0" d="M5.5,86.6c0-11.4,9.2-20.5,20.5-20.5"/>
<path class="st0" d="M83.3,86.6c0-11.4-9.2-20.5-20.5-20.5"/>
<path class="st0" d="M46,8.3c18.4,0.5,24.4,13.3,24.4,13.3c2.2,3.1,3.8,6.7,4.7,10.5"/>
<path class="st0" d="M13,32.9c1-4.5,2.9-8.6,5.5-12.2c0,0,3.6-6.4,12.7-10"/>
<path class="st0" d="M76,41.5c-0.9,16.9-14.8,30.3-31.8,30.3c-17,0-30.9-13.4-31.8-30.3"/>
</svg>
