<?xml version="1.0" encoding="utf-8"?>
<!-- Generator: Adobe Illustrator 22.0.1, SVG Export Plug-In . SVG Version: 6.00 Build 0)  -->
<svg version="1.1" id="Layer_1" xmlns="http://www.w3.org/2000/svg" xmlns:xlink="http://www.w3.org/1999/xlink" x="0px" y="0px"
	 viewBox="0 0 91 78" style="enable-background:new 0 0 91 78;" xml:space="preserve">
<style type="text/css">
	.st0{fill:none;stroke:#FFFFFF;stroke-width:4.5;stroke-miterlimit:10;}
</style>
<g>
	<polygon class="st0" points="89.3,9.4 64.1,39 54.1,24.2 63.9,30.1 	"/>
	<path class="st0" d="M86.2,21.3c0.7,2.1,1.1,4.4,1.1,6.8c0,12-9.7,21.6-21.6,21.6c-12,0-21.6-9.7-21.6-21.6
		c0-12,9.7-21.6,21.6-21.6c7.2,0,13.6,3.5,17.5,8.9"/>
	<path class="st0" d="M61.4,6.9c-0.5-0.5-1.1-0.9-1.7-1.3c-3.4-2.3-8.2-3.4-13-3.4c-4.4,0-8.8,0.9-11.7,2.2L33.9,5l-1.2-0.5
		c-2.4-1.1-5.6-1.9-9.1-2.1l-6,0.1C14,2.8,10.6,3.9,8.1,5.6c-3.4,2.3-5.6,5.6-5.8,11.2c0,0.4,0,0.9,0,1.2c0.1,8,1.9,10.8,4.1,14.8
		c2.3,4,4.9,9,4.8,18.3c0,10.9,1.8,17.2,3.8,20.6c2,3.4,2.7,3.9,4.9,3.9c2.3,0,3.2-2.4,3.3-3.6c0.5-4.6-0.3-11.8,1.9-19.4
		c0.7-2.1,1.4-4.8,3-7.2c2.1-3.2,7.9-5.8,11.5,0c1.5,2.4,2.4,5,3,7.2c1.7,5.8,2.2,11.9,1.8,16.6c-0.6,6.5,3.2,6.5,3.4,6.5
		c2,0,2.9-0.5,4.9-3.9c2-3.4,3.8-9.7,3.8-20.6c0-1.2,0-2.3,0.1-3.3"/>
	<line class="st0" x1="33.9" y1="5" x2="42" y2="9.3"/>
</g>
</svg>
