<?xml version="1.0" encoding="utf-8"?>
<!-- Generator: Adobe Illustrator 22.0.1, SVG Export Plug-In . SVG Version: 6.00 Build 0)  -->
<svg version="1.1" id="Layer_1" xmlns="http://www.w3.org/2000/svg" xmlns:xlink="http://www.w3.org/1999/xlink" x="0px" y="0px"
	 viewBox="0 0 92.9 85.2" style="enable-background:new 0 0 92.9 85.2;" xml:space="preserve">
<style type="text/css">
	.st0{fill:none;stroke:#FFFFFF;stroke-width:4.5;stroke-miterlimit:10;}
</style>
<g>
	<path class="st0" d="M76.3,58.6l3.6-13.3c0,0,0.4-2.8-2.1-4.1c-2.5-1.3-4.8,1-4.8,1l-7.7,15.3v19.1v8.8"/>
	<path class="st0" d="M78.5,50.4l2.9-8.8l-1.7-17.1c0,0-0.8-3,2.5-3.8c3.3-0.8,4.5,2.2,4.5,2.2l2.9,12.2c2.9,12.2,0,21.6,0,21.6
		L82,76.4v8.8"/>
	<path class="st0" d="M77.2,41.2l-3.4-11.9c-0.5-1.7,0.5-3.5,2.2-4c1.7-0.5,3.5,0.5,4,2.2"/>
	<path class="st0" d="M16.6,58.6L13,45.2c0,0-0.4-2.8,2.1-4.1c2.4-1.3,4.8,1,4.8,1l7.7,15.3v19.1v8.8"/>
	<path class="st0" d="M14.4,50.4l-2.8-8.8l1.7-17.1c0,0,0.8-3-2.4-3.8c-3.3-0.8-4.5,2.2-4.5,2.2L3.5,35.3c-2.9,12.2,0,21.6,0,21.6
		L11,76.4v8.8"/>
	<path class="st0" d="M15.8,41.2l3.4-11.9c0.5-1.7-0.5-3.5-2.2-4c-1.7-0.5-3.5,0.5-4,2.2"/>
	<path class="st0" d="M66.2,11.3c-0.1-3.5-1.5-5.5-3.6-7c-2.1-1.4-5.1-2.1-8.1-2.1c-2.8,0-5.5,0.6-7.3,1.4L46.5,4l-0.7-0.3
		C44.3,3,42.2,2.5,40,2.3l-3.8,0c-2.2,0.3-4.3,0.9-5.9,2c-2.1,1.5-3.5,3.5-3.6,7c0,0.3,0,0.5,0,0.8c0,5,1.2,6.7,2.6,9.3
		c1.4,2.5,3.1,5.6,3,11.4c0,6.8,1.1,10.7,2.4,12.8c1.3,2.1,1.7,2.4,3.1,2.4c1.5,0,2-1.5,2-2.3c0.3-2.9-0.2-7.3,1.2-12.1
		c0.4-1.3,0.9-3,1.9-4.5c1.3-2,4.9-3.6,7.2,0c0.9,1.5,1.5,3.1,1.9,4.5c1.1,3.6,1.4,7.4,1.1,10.3c-0.4,4,2,4,2.1,4
		c1.3,0,1.8-0.3,3.1-2.4c1.3-2.1,2.4-6.1,2.4-12.8c0-5.8,1.6-9,3-11.4c1.4-2.5,2.5-4.3,2.6-9.2C66.2,11.9,66.2,11.6,66.2,11.3z"/>
	<line class="st0" x1="46.5" y1="4" x2="51.5" y2="6.6"/>
</g>
</svg>
