<?xml version="1.0" encoding="utf-8"?>
<!-- Generator: Adobe Illustrator 22.0.1, SVG Export Plug-In . SVG Version: 6.00 Build 0)  -->
<svg version="1.1" id="Layer_1" xmlns="http://www.w3.org/2000/svg" xmlns:xlink="http://www.w3.org/1999/xlink" x="0px" y="0px"
	 viewBox="0 0 288 288" style="enable-background:new 0 0 288 288;" xml:space="preserve">
<style type="text/css">
	.st0{fill-rule:evenodd;clip-rule:evenodd;fill:#FFFFFF;}
</style>
<path class="st0" d="M177.5,229.5h37v34.8h-37V229.5L177.5,229.5z M177.5,189.8h37v23.4h-37V189.8L177.5,189.8z M177.5,159.4
	c0-16.9,11.2-33.5,12.8-42.6c0.7-4.1,0.2-33.6,0.2-41.7c0-6.9,0.5-9.2,6-9.2c4.8,0,4.9,4,4.9,8.7c-0.1,8.2-0.5,36.1,0.2,40.6
	c2,12.1,12.8,27.3,12.8,42.1v16.3h-37V159.4L177.5,159.4z M159.6,264.3H68.2V25.6h119.1c2.7,0,1.6,6.2,1.6,11.4c0,4.5,0,9.1,0,13.6
	c-6.5,1.5-12.9,8.4-14.2,15.7c-1.3,7.5-0.4,34.1-0.5,45.2c0,4.3-2.2,8.2-3.6,11.6c-2.9,7.1-6.4,14.4-8.1,22.4
	c-2.7,12.7-1.4,69.7-1.4,89.9l0,22.8C161.2,261,162,264.3,159.6,264.3L159.6,264.3z M51.4,280.1h180V162.6
	c0-18.1-4.9-26.9-10.7-41.5c-2.5-6.2-2.9-5.9-2.9-14.5c0-11.6-0.1-23.2,0-34.8c0.1-18-13.1-18.7-13.1-21.7V9.8H51.4V280.1
	L51.4,280.1z"/>
<path class="st0" d="M101.4,81.1V62.6c0-1.3,0.4-1.6,1.6-1.6h30.5c1.3,0,1.6,0.4,1.6,1.6v20.1H103C101.8,82.7,101.4,82.3,101.4,81.1
	L101.4,81.1z M85.1,46.3v51.1c0,1.3,0.4,1.6,1.6,1.6h64.2V44.6H86.7C85.5,44.6,85.1,45,85.1,46.3L85.1,46.3z"/>
<path class="st0" d="M85.1,125.1v13.1c0,1.3,0.4,1.6,1.6,1.6h39.7v-16.3H86.7C85.5,123.5,85.1,123.9,85.1,125.1L85.1,125.1z"/>
<path class="st0" d="M85.1,172.4c4.4,1,29.3,1,33.7,0v-15.8H85.1V172.4L85.1,172.4z"/>
</svg>
