<?xml version="1.0" encoding="UTF-8"?>
<!DOCTYPE svg PUBLIC "-//W3C//DTD SVG 1.1//EN" "http://www.w3.org/Graphics/SVG/1.1/DTD/svg11.dtd">
<!-- Creator: CorelDRAW 2018 (64-Bit) -->
<svg xmlns="http://www.w3.org/2000/svg" xml:space="preserve" width="129.817mm" height="129.817mm" version="1.1" style="shape-rendering:geometricPrecision; text-rendering:geometricPrecision; image-rendering:optimizeQuality; fill-rule:evenodd; clip-rule:evenodd"
viewBox="0 0 13215.31 13215.31"
 xmlns:xlink="http://www.w3.org/1999/xlink">
 <defs>
  <style type="text/css">
   <![CDATA[
    .fil0 {fill:#fff}
   ]]>
  </style>
 </defs>
 <g id="Layer_x0020_1">
  <metadata id="CorelCorpID_0Corel-Layer"/>
  <path class="fil0" d="M6515.45 6914.99c309.84,0 483.7,16.38 731.09,283.11 691.74,745.8 -396.22,1936.06 -1231.23,1169.76 -131.47,-120.65 -238.03,-333.45 -254.85,-571.92 -16.36,-231.87 84.75,-464.63 208.3,-597.85 112.89,-121.71 324.5,-283.11 546.69,-283.11zm-1044.93 -4364.12c0,-381.04 359.12,-799.06 737.6,-799.06l799.06 0c364.72,0 737.6,416.07 737.6,768.33 0,436.08 -160.59,1664.28 -184.18,2213.01 -10.87,252.98 -65.78,874.72 -143.25,1055.34 -288.67,673.03 -1294.78,693.38 -1609.76,21.09 -110.62,-236.12 -230.25,-1817.42 -244.65,-2152.53 -15.89,-369.89 -92.41,-721.25 -92.41,-1106.18zm-5470.53 -645.4l0 6515.45c0,762.63 542.09,1488.32 1211.21,1769.91 251.07,105.66 505.3,168.68 847.52,166.69l5995.58 -2.6c231.78,-0.01 201.72,34.16 328.3,163.43l2489.27 2489.53c116.53,117.35 156.24,207.43 345.77,207.43 151.9,0 276.6,-124.69 276.6,-276.6l0 -2612.33c350.34,-7.81 695.33,-216.23 953.15,-399.11 386.77,-274.35 767.92,-898.36 767.92,-1506.34l0 -6515.45c0,-481.95 -255.79,-1011.24 -575,-1330.46 -54.52,-54.52 -59.46,-50.95 -118.42,-96.71 -363.14,-281.85 -695.97,-478.29 -1212.04,-478.29l-9404.37 0c-322.62,0 -545.14,85.41 -768.23,184.51 -634.78,282 -1137.24,1011.87 -1137.24,1720.96z"/>
 </g>
</svg>
