<?xml version="1.0" standalone="no"?>
<svg viewBox="0 0 200 200" xmlns="http://www.w3.org/2000/svg">
  <path fill="linear-gradient(50deg, rgba(123,198,239,1) 0%, rgba(67,151,234,1) 100%);" d="M21.8,-41.3C24.8,-32,21.6,-20.2,24.8,-11.7C28.1,-3.3,37.8,1.8,40.8,8.4C43.8,15,40,23.2,32.3,22.7C24.5,22.1,12.8,12.9,3.5,18.6C-5.7,24.2,-12.5,44.8,-24.8,54.8C-37.2,64.8,-55.2,64.1,-67.3,55.4C-79.3,46.6,-85.6,29.9,-84.6,14.2C-83.6,-1.4,-75.4,-16.1,-65.4,-26.4C-55.3,-36.7,-43.2,-42.6,-32,-48.2C-20.8,-53.8,-10.4,-59,-0.5,-58.2C9.4,-57.4,18.7,-50.6,21.8,-41.3Z" transform="translate(100 100)" />
</svg>
