<?xml version="1.0" encoding="utf-8"?>
<!-- Generator: Adobe Illustrator 22.0.1, SVG Export Plug-In . SVG Version: 6.00 Build 0)  -->
<svg version="1.1" id="Layer_1" xmlns="http://www.w3.org/2000/svg" xmlns:xlink="http://www.w3.org/1999/xlink" x="0px" y="0px"
	 viewBox="0 0 79.3 89.2" style="enable-background:new 0 0 79.3 89.2;" xml:space="preserve">
<style type="text/css">
	.st0{fill:none;stroke:#FFFFFF;stroke-width:4.5;stroke-miterlimit:10;}
	.st1{fill:none;stroke:#FFFFFF;stroke-width:4.5;stroke-linecap:round;stroke-linejoin:round;stroke-miterlimit:10;}
</style>
<g>
	<path class="st0" d="M38.6,10.7c-1.3-2.7-4.1-4.6-7.4-4.6s-6,1.9-7.4,4.6h-6.6v11.5h15.4"/>
	<path class="st0" d="M17.3,15.3H2.3v71.6h56.3c3.6,0,6.5-2.9,6.5-6.5V42.8"/>
	<polyline class="st0" points="12.8,46.4 15.6,50.4 22.6,41.8 	"/>
	<polyline class="st0" points="12.8,59.1 15.6,63.1 22.6,54.5 	"/>
	<polyline class="st0" points="12.8,71.8 15.6,75.8 22.6,67.2 	"/>
	<line class="st0" x1="28.6" y1="50.4" x2="46.4" y2="50.4"/>
	<line class="st0" x1="28.6" y1="62" x2="55.1" y2="62"/>
	<line class="st0" x1="28.6" y1="73.5" x2="55.1" y2="73.5"/>
	<path class="st0" d="M77,24.4c0,12.2-9.9,22.1-22.1,22.1c-12.2,0-22.1-9.9-22.1-22.1c0-12.2,9.9-22.1,22.1-22.1
		C67.1,2.3,77,12.2,77,24.4z"/>
	<path class="st1" d="M66.1,17.1c-0.1-2-0.9-3.2-2.1-4c-1.2-0.8-2.9-1.2-4.6-1.2c-1.6,0-3.1,0.3-4.2,0.8l-0.4,0.2l-0.4-0.2
		c-0.8-0.4-2-0.7-3.2-0.8l-2.1,0c-1.3,0.1-2.5,0.5-3.4,1.1c-1.2,0.8-2,2-2.1,4c0,0.2,0,0.3,0,0.4c0,2.8,0.7,3.8,1.5,5.3
		c0.8,1.4,1.7,3.2,1.7,6.5c0,3.8,0.6,6.1,1.4,7.3c0.7,1.2,1,1.4,1.7,1.4c0.8,0,1.1-0.8,1.2-1.3c0.2-1.6-0.1-4.2,0.7-6.9
		c0.2-0.8,0.5-1.7,1.1-2.5c0.8-1.1,2.8-2,4.1,0c0.5,0.9,0.8,1.8,1.1,2.5c0.6,2.1,0.8,4.2,0.7,5.9C58.5,38,59.8,38,59.9,38
		c0.7,0,1-0.2,1.7-1.4c0.7-1.2,1.4-3.5,1.4-7.3c0-3.3,0.9-5.1,1.7-6.5c0.8-1.4,1.4-2.4,1.5-5.3C66.2,17.4,66.1,17.3,66.1,17.1z"/>
	<line class="st1" x1="54.9" y1="12.9" x2="57.8" y2="14.4"/>
</g>
</svg>
