<?xml version="1.0" encoding="utf-8"?>
<!-- Generator: Adobe Illustrator 22.0.1, SVG Export Plug-In . SVG Version: 6.00 Build 0)  -->
<svg version="1.1" id="Layer_1" xmlns="http://www.w3.org/2000/svg" xmlns:xlink="http://www.w3.org/1999/xlink" x="0px" y="0px"
	 viewBox="0 0 288 288" style="enable-background:new 0 0 288 288;" xml:space="preserve">
<style type="text/css">
	.st0{fill-rule:evenodd;clip-rule:evenodd;fill:#FFFFFF;}
</style>
<path class="st0" d="M113.5,192.2c16,10.7,38.6,9.1,54.9,0.5V249h-54.9V192.2L113.5,192.2z M187.6,249h-5.2v-43.2
	c1.6,1.1,14.9,18.4,17.4,21.6c1.1,1.4,1.4,1.5,2.4,3.3c-1,1.9-2,3-3.3,4.6L189,248C188.4,248.7,189,249,187.6,249L187.6,249z
	 M79.2,230.7c1.4-2,3.2-4.1,4.8-6l9.7-12.3c1.3-1.6,3.7-5,5.2-6V249c-6.8,0-4.9,1.2-12.4-8.7C84,236.9,81.4,234,79.2,230.7
	L79.2,230.7z M62.8,230.7c0,4.5,9.1,12.5,12.2,18.3H37.4v-27.7l11.4-4.6c4-1.6,7.3-3,11.3-4.6c2.1-0.8,21.2-9,22.8-9.1l-15.8,19.8
	C65.6,224.6,62.8,227.7,62.8,230.7L62.8,230.7z M198.4,202.5c4.2,1,42.7,17.9,46.5,18.8V249h-38.5l9.8-12.7c5.9-7.8,0-10.7-7.2-20.3
	c-1.8-2.4-3.3-4.2-5.2-6.6L198.4,202.5L198.4,202.5z M141.2,185.6c-2.4,0-6.8-0.7-9.1-1.2c-3.2-0.7-5.4-1.4-8.1-2.7
	c-14.7-6.8-24.6-20.9-24.6-39.3v-27.7c0-3.5,0.8-6.3,2.5-8.3c1.5-1.8,4.3-3.9,7.4-3.9h63.8c3,0,5.7,1.9,7.1,3.7
	c1.8,2.2,2.7,4.6,2.7,8.5c0,14.3,1.5,33-3.2,44.7C173.4,175.1,157.8,185.6,141.2,185.6L141.2,185.6z M85.3,112.4v32.8
	c0,7.7,2,14.5,4.3,20.1c3.5,8.5,5.8,9.9,9.3,15.1l-30,12.7v-83.5c0-10.2,1.5-16.3,4.4-23.7c16.6-41.6,69-56.3,106.6-33.8
	c1.8,1.1,2.6,1.6,4.2,2.8c17.5,12.2,29.3,31.6,29.3,54.2v84c-2.3-1.1-4.7-1.9-7.3-3l-22.7-9.7c3.5-5.2,5.8-6.6,9.3-15.1
	c2.3-5.6,4.3-12.4,4.3-20.1v-32.8c0-4.6-2-10.4-4.6-13.7c-2.2-2.8-3.6-4.3-6.4-6.3c-1.4-1-2.6-1.6-4.3-2.3
	c-3.1-1.2-6.4-2.1-10.5-2.1h-60.1C96.8,88,85.3,99.4,85.3,112.4L85.3,112.4z M54.8,170.6v27.2c0,1.7-4.9,3.1-7.8,4.4l-17.9,7.4
	c-3,1.2-5.7,2.7-5.7,7v40.4c0,2.9,3.2,6.1,6.1,6.1h223.4c2.9,0,6.1-3.2,6.1-6.1v-40.4c0-4.1-2.3-5.4-5-6.7c-2.9-1.4-5.8-2.4-8.6-3.6
	l-13-5.3c-1.8-0.8-2.4-1.2-4.4-1.7c0-21.3,0-42.5,0-63.8c0-10.4,0.3-21.9-0.4-31.5c-1.4-18.3-9.4-36.9-22.2-49.6
	c-1.4-1.4-2.6-2.7-4-4c-0.9-0.8-1.2-0.8-2.1-1.7c-13.5-12.1-34-21.2-55.3-21.2h-6.1c-16.4,0-33.7,6.6-43.7,13
	c-1.6,1.1-2.7,1.6-4.3,2.8c-23.3,17.6-35.5,38.3-35.5,71C54.3,133.4,54.8,151.3,54.8,170.6L54.8,170.6z"/>
<path class="st0" d="M120.5,150.4c0,11.2,9.3,20.6,19.2,20.6c7,0,11.6-1.4,16.3-6.2c2.7-2.7,5.7-8.8,5.7-14c0-5.9-6.8-9.4-11.5-5.9
	c-4.5,3.3-1.3,12-9.2,12c-7.7,0-4.9-8.5-8.9-11.8C127.4,141.3,120.5,145.3,120.5,150.4L120.5,150.4z"/>
</svg>
