<?xml version="1.0" encoding="utf-8"?>
<!-- Generator: Adobe Illustrator 22.0.1, SVG Export Plug-In . SVG Version: 6.00 Build 0)  -->
<svg version="1.1" id="Layer_1" xmlns="http://www.w3.org/2000/svg" xmlns:xlink="http://www.w3.org/1999/xlink" x="0px" y="0px"
	 viewBox="0 0 288 288" style="enable-background:new 0 0 288 288;" xml:space="preserve">
<style type="text/css">
	.st0{fill-rule:evenodd;clip-rule:evenodd;fill:#FFFFFF;}
</style>
<path class="st0" d="M145.5,135.2c1.1-1.7,2.7-3.1,4.3-4.3c1.8-1.4,3-3.1,4.8-4.3c3.5,2.4,6,6.2,9.6,8.6l-9,9.2
	C152.5,142.5,147.2,137.7,145.5,135.2L145.5,135.2z M259.3,174.3v2c-0.5,3.3-3.4,6.2-8.6,6.2H31.3c-4.8,0-8.6-2.4-8.6-7.2
	c0-9.3,9.9-7.2,18.2-7.2H113c1.2-4.4,18.5-18.2,22-23.4c-17.1-11.4,3.1-19.8,9.1-28.7c-0.7-2.5-1.4-1.3-1.4-5.7
	c0-3.6,11.1-13.2,14-16.1l37.3-37.3c2.4-2.4,4.5-5.9,9-5.9c5.1,0,10.6,8.9,14.5,11.6l12.3-12.5c-3-4.5-9.1-5-9.1-13.4
	c0-3.4,3.8-6.2,7.2-6.2c4.1,0,14.2,11.5,17.3,14.7c2.7,2.7,5.1,5.1,7.9,7.9c2.4,2.4,6.3,5.1,6.3,9.4c0,4.3-3.3,7.2-6.2,7.2
	c-6.5,0-6.2-4.3-13.4-9.1l-6.3,6.1c-2.1,2.1-4.2,3.7-5.6,6.3c1.4,2.1,4.6,4.8,6.6,6.8c2.2,2.2,4.9,3.8,4.9,8c0,3.9-4.2,6.8-6.3,9
	l-37.5,37.5c-11.2,11.2-12.8,16-21.6,11.4c-1.2,1.8-2.9,3-4.4,4.7c-5.8,6.6-4.1,4-8.6,8.6c-7.4,7.6-11.7-1.1-15.7-3.7
	c-1.2,1.8-7.2,7-9.7,9.4c-1.2,1.1-2.3,1.8-2.7,3.5l116.6,0c3.2,0,5.2-0.5,7.1,1.1C258,170.6,259,172.5,259.3,174.3L259.3,174.3z
	 M179.1,130.5L160,111.2c0.8-1.2,21.1-22.2,23.3-22.8l19,18.8L179.1,130.5L179.1,130.5z M193.3,77.8l9.2-9.4l19.1,18.9
	c-0.9,3-6.3,6-8.7,9.7c-1.1-0.8-1.4-1.3-2.6-2.2c-1.3-1-1.5-1.1-2.5-2.2c-3-3.1-8.9-9.9-11.8-12.1C194.6,79.3,194.3,79.2,193.3,77.8
	L193.3,77.8z"/>
<path class="st0" d="M22.7,202.1c0,5.2,2.6,7.9,8.1,8.1c10.7,0.4,12,5.3,22.2,9.4c10.2,4.1,23.6,3,32.2-2.3
	c10.2-6.3,9.9-7.1,21.1-7.1c8.7,0,14.2,7.8,24,10.4c7.2,1.9,13.5,1.9,20.6,0.2c2.9-0.7,6.3-2.2,8.5-3.5c9.6-5.6,8.9-7.1,20.6-7.1
	c4,0,6.5,1,9.1,2.4c8.7,4.6,13.3,9.6,26.3,9.6c4.2,0,10.2-1.3,13.3-2.4c9.2-3.5,12.5-9.3,22-9.5c5.9-0.1,8.3-3.1,8.6-6.4v-1.4
	c-0.3-3.4-2.7-6.5-5.7-6.5c-9.8,0-13,0.6-21.5,5.7c-5.3,3.1-8.2,6.2-16.7,6.2c-8,0-12-3-16.7-6.2c-11.6-7.8-28.7-7.8-40.7-0.1
	c-1.2,0.8-2.1,1.3-3.3,2c-1.1,0.7-2.2,1.5-3.6,2.2c-3,1.5-6.4,2.1-10.3,2.1c-13.6,0-18.7-11.9-33.5-11.9c-9.6,0-15.2,0-23.6,5.5
	c-5,3.3-8.9,6.4-17,6.4c-8.5,0-11.1-2.9-16.4-6.1c-1.3-0.8-2.3-1.4-3.6-2.1c-6.9-3.6-10.8-3.7-18.2-3.7
	C25.7,195.9,22.7,199.4,22.7,202.1L22.7,202.1z"/>
<path class="st0" d="M98.2,233.2c0,4.5,3.8,7.6,7.2,7.6c8.4,0,11.1-14.3-1-14.3C101.3,226.5,98.2,230,98.2,233.2L98.2,233.2z"/>
<path class="st0" d="M53.8,247c0,4,3.4,7.6,7.2,7.6c8.3,0,11.2-14.3-1-14.3C56.4,240.3,53.8,244.7,53.8,247L53.8,247z"/>
<path class="st0" d="M172.3,232.7c0,10.3,12.7,10.5,14.2,1.7c0.6-3.6-1.8-7.9-8-7.9C175.6,226.5,172.3,229.7,172.3,232.7
	L172.3,232.7z"/>
<path class="st0" d="M213.9,246.5c0,7.5,7.3,10.3,11.8,6.1c4-3.7,3.5-12.3-5.6-12.3C217.1,240.3,213.9,243.6,213.9,246.5
	L213.9,246.5z"/>
<path class="st0" d="M134,246.5c0,10.8,13.9,10.8,13.9,0c0-1.7-1.1-3.2-2-4.2c-2.5-2.7-7.2-2.7-9.6-0.2
	C135.3,243.1,134,244.7,134,246.5L134,246.5z"/>
</svg>
