<?xml version="1.0" encoding="utf-8"?>
<!-- Generator: Adobe Illustrator 22.0.1, SVG Export Plug-In . SVG Version: 6.00 Build 0)  -->
<svg version="1.1" id="Layer_1" xmlns="http://www.w3.org/2000/svg" xmlns:xlink="http://www.w3.org/1999/xlink" x="0px" y="0px"
	 viewBox="0 0 440.8 440.8" style="enable-background:new 0 0 440.8 440.8;" xml:space="preserve">
<style type="text/css">
	.st0{fill:#FFFFFF;}
</style>
<path class="st0" d="M309.5,0H131.3C58.9,0,0,58.9,0,131.3v178.2c0,72.4,58.9,131.3,131.3,131.3h178.2
	c72.4,0,131.3-58.9,131.3-131.3V131.3C440.8,58.9,381.9,0,309.5,0L309.5,0z M396.5,309.5c0,48-38.9,87-87,87H131.3
	c-48,0-87-38.9-87-87V131.3c0-48,38.9-87,87-87h178.2c48,0,87,38.9,87,87V309.5z"/>
<path class="st0" d="M220.4,106.4c-62.9,0-114,51.1-114,114s51.1,114,114,114s114-51.1,114-114S283.3,106.4,220.4,106.4L220.4,106.4
	z M220.4,290.1c-38.5,0-69.7-31.2-69.7-69.7s31.2-69.7,69.7-69.7s69.7,31.2,69.7,69.7C290.1,258.9,258.9,290.1,220.4,290.1
	L220.4,290.1z"/>
<path class="st0" d="M362,107.3c0,15.1-12.2,27.3-27.3,27.3c-15.1,0-27.3-12.2-27.3-27.3S319.6,80,334.7,80
	C349.7,79.9,362,92.2,362,107.3L362,107.3z"/>
</svg>
