<?xml version="1.0" encoding="utf-8"?>
<!-- Generator: Adobe Illustrator 22.0.1, SVG Export Plug-In . SVG Version: 6.00 Build 0)  -->
<svg version="1.1" id="Layer_1" xmlns="http://www.w3.org/2000/svg" xmlns:xlink="http://www.w3.org/1999/xlink" x="0px" y="0px"
	 viewBox="0 0 288 288" style="enable-background:new 0 0 288 288;" xml:space="preserve">
<style type="text/css">
	.st0{fill-rule:evenodd;clip-rule:evenodd;fill:#FFFFFF;}
</style>
<path class="st0" d="M102.6,205.7v11.9H79.2c0-2.6,0.5-3.2,0.5-6v-7.3H103C102.7,204.9,102.6,204.9,102.6,205.7L102.6,205.7z
	 M118.9,30.4h6.3h0.1h0.1h0.1h0.1h0.1h0.1h0.1h0.1l32.2,0.4l30.3,2.8c5.1,0.5,7.8,2.6,7.8,8.3v76.7c0,4-2.5,6.5-5.6,7.3
	c-3.7,0.9-29.8,3.3-33.9,3.3c-2.1,0-4.3-0.2-6.3,0.1c-1.1,0.2-4.3,0.2-5.5,0.4c-3.8,0.8-10.7,8.8-12.6,12.1c-1.6,2.8-3,5-4.3,8.1
	c-2.7,6.4-5.1,11.6-6.5,18.7c-3.1,15.1-5.1,28.5-5.1,44.5c0,19.7,1.1,17.9-19.7,17.9v4.6c0,5,4.7,8.7,10.1,8.7H154
	c5.5,0,8.2-2.8,8.3-8.2c0.3-13.5-0.9-77,0.5-82.1c2.2-7.9,9.6-14.8,17.8-14.8c7.4,0,13.1,1.6,17.5,7.7c4.3,5.9,4.1,9.1,4.1,18.9
	l0,68.9c0,4.5,0.4,6.4,3.1,8.4c4.3,3.1,36,0.2,44.6,1.3c8.1,1.1,6.7,13.3-0.4,13.3h-42.2c-7.8,0-15.8-6.7-17.9-15.1
	c-1.1-4.4-0.3-68.8-0.4-81.3c-0.1-9.9-8.9-10.4-12.2-5.3c-1.9,2.9-1.1,19.2-1.1,23.2c0,9.4,0.8,59.5-0.7,64.5
	c-0.6,1.8-1.7,4.1-2.7,5.5l-4,4.3c-2.8,2.2-7,4.3-11.8,4.3h-52.3c-5.8,0-12.4-4-15.3-7.2c-5-5.7-5.9-11.3-5.9-19.4
	c-8.7,0-15.3,1.5-17.4-4.7c-0.5-1.6-0.3-6.7,0.1-9.4l0.8-20.3c0-20.7,0.6-46.8-5.6-65.1c-1.7-5.1-2-7-5-7.4
	c-3.8-0.5-7.5-0.9-11.1-1.3c-7.4-0.9-16.4-0.2-16.4-7.9V44.1c0-1.9,1.5-3.8,2.7-4.7c4-2.9,55.5-7.1,68.5-8.1L118.9,30.4L118.9,30.4z
	 M73.6,126.3c4.3,0,8,0.6,12.4,1c1.8,0.1,3.7,0.3,6,0.5l12.4,0.9c2.6,0,3.5,0.5,6.4,0.5c5.1,0,8.3,0.4,13.3,0.4
	c-4.7,7-8.5,12.5-11.4,20.7c-0.9,2.5-0.3,3-3.3,3.2c-4.6,0.3-6.9,2.4-6.9,7.3c0,3.3,2.8,4.8,5.1,6c-0.1,2.4-3.7,16-3.7,24.3H80.1
	C80.1,176,79.6,139.7,73.6,126.3L73.6,126.3z M169.6,114.4V45.5c3.4,0,5.7,0.3,8.9,0.7c5.2,0.6,3.9,0,3.9,6.2l0,60.6
	c-1.5,0.1-4.3,0.5-6.2,0.7C174.6,114,170.9,114.3,169.6,114.4L169.6,114.4z M41.5,107.5V51l44.6-5c7.5-0.8,26.2-2,35.3-1.9
	c5.1,0,11.7-0.7,17.9-0.5c4.1,0.1,5.2,0.5,11.5,0.5c2.2,0,5-0.7,5,1.4v68.4c0,2.6-3.9,0.9-8.6,1.5c-9.4,1.3-34-0.3-44.2-0.6
	c-2.4-0.1-3.1-0.5-6-0.5c-9.1,0-39.3-3.8-50.9-5.1C44.5,109,41.5,109.3,41.5,107.5L41.5,107.5z"/>
<path class="st0" d="M68.1,74.9l14.3-1.8c5-0.5,10-0.9,14.7-1.4l11.4-0.6c1.7-0.1,1.6-0.4,3.7-0.5c2.7-0.1,5.6,0.1,8.3,0
	c2.8,0,4.5-0.5,7.8-0.5v18.8c-5.8,0-10.3-0.5-15.6-0.5l-11.5-0.5c-1.7-0.1-1.6-0.4-3.7-0.4l-22-1.9C73.8,85.6,70,85,68.1,85V74.9
	L68.1,74.9z M54.8,68.5v23.4c0,6.6,9.3,6.5,13.8,6.9l18.7,2c5.7,0.7,13.3,0.8,19.1,1.6c4.4,0.6,23.2,0.6,28.8,0.6
	c3.5,0,6.9-2.7,6.9-6V63.4c0-2.2-0.5-3.1-1.7-4.3c-3.4-3.4-9.7-2.1-17.6-2.1c-14.3,0-40.9,2.2-55.2,4C62.8,61.6,54.8,61,54.8,68.5
	L54.8,68.5z"/>
<path class="st0" d="M224.7,48.3c0,7.9,3.3,4.6,10.6,13.7c7.3,9.1,8.4,22.1,3.1,32.7c-5.8,11.5-12.5,10.2-13.1,16.7
	c-0.3,3,3.8,14.1,16,1.8c9.6-9.6,14.1-18.1,14.1-34.1c0-8.2-3.9-18.1-7.4-22.9c-3-4.1-11.2-13.8-16.5-13.8
	C228.4,42.3,224.7,45,224.7,48.3L224.7,48.3z"/>
<path class="st0" d="M209.1,70.8c0,5.6,6,6.3,6,8.7c0,7.3-5.1,2.9-5.1,11c0,5.3,8.8,10,15.3,0.7c4.6-6.6,4.8-15.3-0.1-21.4
	c-3.2-4-8.8-8.3-13.7-3.9C210.6,66.6,209.1,69.4,209.1,70.8L209.1,70.8z"/>
</svg>
