<?xml version="1.0" encoding="utf-8"?>
<!-- Generator: Adobe Illustrator 22.0.1, SVG Export Plug-In . SVG Version: 6.00 Build 0)  -->
<svg version="1.1" id="Layer_1" xmlns="http://www.w3.org/2000/svg" xmlns:xlink="http://www.w3.org/1999/xlink" x="0px" y="0px"
	 viewBox="0 0 288 288" style="enable-background:new 0 0 288 288;" xml:space="preserve">
<style type="text/css">
	.st0{fill-rule:evenodd;clip-rule:evenodd;fill:#FFFFFF;}
</style>
<path class="st0" d="M53.9,33.2H167v52.6c0,4.5,3.4,7.8,7.8,7.8h52.6v163.2H53.9V33.2L53.9,33.2z M182.1,44.6
	c2.4,0.6,23.2,22.4,25.9,25.2c2.3,2.3,6.9,6.4,8.5,8.7c-39.8,0-34.4,2.6-34.4-7.8L182.1,44.6L182.1,44.6z M38.2,26.4v237.2
	c0,4.7,3.1,8.3,7.8,8.3h189.2c5.5,0,7.8-4.2,7.8-9.4V87.9c0-6.2-2.9-7.9-6.1-11.1l-43-43c-4.3-4.3-5-4.5-8.6-8.6
	c-2.3-2.6-6-7.2-10.6-7.2H46C41.3,18,38.2,21.7,38.2,26.4L38.2,26.4z"/>
<path class="st0" d="M114.8,145.2c0,4,3,7.8,6.8,7.8h85c8.9,0,8.9-15.1,0-15.1h-85C118.1,137.9,114.8,141.6,114.8,145.2L114.8,145.2
	z"/>
<path class="st0" d="M114.8,204.7c0,4,3,7.8,6.8,7.8h85c8.9,0,8.9-15.1,0-15.1h-85C118.1,197.4,114.8,201.1,114.8,204.7L114.8,204.7
	z"/>
<path class="st0" d="M114.8,115.5c0,4,3,7.8,6.8,7.8h85c8.9,0,8.9-15.1,0-15.1h-85C118.1,108.2,114.8,111.9,114.8,115.5L114.8,115.5
	z"/>
<path class="st0" d="M114.8,174.9c0,4,3,7.8,6.8,7.8h85c8.9,0,8.9-15.1,0-15.1h-85C118.1,167.7,114.8,171.4,114.8,174.9L114.8,174.9
	z"/>
<path class="st0" d="M81.5,56.1v5.7c-4.8,0-9.2-0.8-11.9,2.2c-4.5,5.1-1.4,12.9,5.6,12.9h6.3c0,3.8-0.8,14.1,7.3,14.1
	c8.9,0,8.3-8.6,8.3-14.1c5.3,0,12.8,1.1,13.9-7c0.5-3.6-3.1-8.1-6.6-8.1h-7.3c0-4,0.5-8.4-1.9-11.1C89.8,44.6,81.5,48.7,81.5,56.1
	L81.5,56.1z"/>
<path class="st0" d="M179,234.4c0,4,3,7.8,6.8,7.8h20.9c8.4,0,10-15.1-1-15.1h-18.8C182.4,227.1,179,230.2,179,234.4L179,234.4z"/>
<path class="st0" d="M67.9,115.5c0,3.8,3.5,7.8,7.3,7.8H93c8.9,0,9.1-15.1,0-15.1c-7.3,0-19-1.3-22.5,2
	C69.5,111,67.9,114.1,67.9,115.5L67.9,115.5z"/>
<path class="st0" d="M67.9,204.7c0,4.3,3.3,7.8,7.8,7.8H93c6.1,0,9.1-8.5,4.9-12.7c-1.1-1.1-2.9-2.4-4.9-2.4H75.2
	C71.6,197.4,67.9,201.7,67.9,204.7L67.9,204.7z"/>
<path class="st0" d="M67.9,174.9c0,4.2,3.5,7.8,7.8,7.8H93c2.9,0,6.8-3.3,6.8-6.3v-2.6c0-2.9-3.8-6.3-6.8-6.3H75.8
	C70.9,167.7,67.9,172.3,67.9,174.9L67.9,174.9z"/>
<path class="st0" d="M67.9,145.2c0,3.8,3.5,7.8,7.3,7.8H93c2.9,0,6.8-3.3,6.8-6.3v-2.6c0-2.9-3.8-6.3-6.8-6.3H75.8
	C70.9,137.9,67.9,142.6,67.9,145.2L67.9,145.2z"/>
</svg>
