<?xml version="1.0" encoding="utf-8"?>
<!-- Generator: Adobe Illustrator 22.0.1, SVG Export Plug-In . SVG Version: 6.00 Build 0)  -->
<svg version="1.1" id="Layer_1" xmlns="http://www.w3.org/2000/svg" xmlns:xlink="http://www.w3.org/1999/xlink" x="0px" y="0px"
	 viewBox="0 0 288 288" style="enable-background:new 0 0 288 288;" xml:space="preserve">
<style type="text/css">
	.st0{fill-rule:evenodd;clip-rule:evenodd;fill:#FFFFFF;}
</style>
<path class="st0" d="M165.1,216.2c-11.1-5.3-10.1,11-23.6,11c-3.5,0-6.9-1.4-9.1-3c-1.3-1-2-1.6-2.9-2.8c-0.8-1-1.9-2.9-2.6-3.7
	c-7.6-7.8-23.9,4.5-4.1,19.3c4,3,10.4,5.9,17.1,5.9c-4.1,6.2-11.6,11.6-15.7,17.8c-5.4-2.6-7.2-1.7-16.5-8.2
	c-15.5-10.9-23.9-28.4-23.9-50v-40.3c0-22.3,15.5-40.3,36.7-40.3h40.3c14.6,0,27.9,9.9,33.5,22.5c3.4,7.7,2.6,14.4,2.6,25.1
	c0,9.4,0,18.9,0,28.3c-4.7-0.4-6.4-1.5-13.7,1.5c-6.5,2.7-10.6,8.7-15.2,13.6C166.9,214.3,166.1,214.8,165.1,216.2L165.1,216.2z
	 M221.7,147.1c3,0,6.2,2.6,7.3,5.8c1,2.9,0.6,8.6,0.6,12.5c0,8.7,0,17.5,0,26.2c0,12.6,1.6,41.6-0.1,51.7c-1.5,8.6-8.7,19.3-12.5,20
	c-1.3,0.2-5.2,0-6.8,0h-66.5l23.2-25.5c4.7-4.7,12.8-14.4,17.5-19.1c3.6-3.6,4-5.1,9-5.1c5.8,0,10.2,9,5.2,15.7
	c-3,3.9-10.4,10-10.4,13.7c0,3-0.3,5.3,2.9,7.6c7,5.2,12.5-2.8,15.1-5.9c5.1-6,10.8-10.2,10.8-22.2c0-10-3.7-8-3.7-18.3
	c0-7.3,0-14.7,0-22c0-4.3-0.6-6.4-0.5-10.5c0-5.7-0.7-16.7,1.6-20.4C215.7,149,218.1,147.1,221.7,147.1L221.7,147.1z M68.2,187.9
	c-3.8-2.8-9.2-12.9-11.4-17.5c-9.1-19.3-4.5-47.3,5.9-66c1.3-2.3,2.7-4.7,4.1-6.9c15-22,41.8-38.5,68.8-38.5
	c16.7,0,26.4,0.4,41.9,7.3c21.1,9.4,39.5,28.3,46.7,50.2c1.4,4.3,3.7,10.5,4.1,15.8c-4.3-2.1-11.7-1.5-16.2,0.5
	c-1.6,0.7-2.8,1.7-4.7,2.1c-9.7-18.4-26.8-29.3-49.2-29.3h-35.1c-25.5,0-43.3,14.8-51.3,34.1C65.9,154.5,68.2,171.4,68.2,187.9
	L68.2,187.9z M173.5,47.6L173.5,47.6L173.5,47.6z M173.5,47.6c-5.4-0.5-12-4.7-32.5-4.7c-6.2,0-12,0.4-17.6,1.3L108,47.6
	c3.1-13.3,20.2-20.8,32.5-21c6.1-0.1,15.9,2.4,21,5.8C166.1,35.5,172.9,41.2,173.5,47.6L173.5,47.6z M36.2,141.8
	c0,13.2-0.4,14.7,3.4,28.1c4.2,14.9,13.7,26.9,25.1,36.7c1,0.9,2.2,1.9,3.5,2.3c0,12.1,4.9,27,11,36.2c2.1,3.1,4,6.3,6.7,9
	c0.7,0.7,1.2,1.1,1.8,1.8c1,1.2,0.8,1.3,1.9,2.3l4.1,3.7c10.9,9.7,23.3,12.8,25.1,14.2c1.6,1.2,2.5,3,5.4,3h98.5
	c3.9,0,6.6-4.3,8.5-6.7c3.1-3.7,2.8-2.1,6.9-8.3c3.7-5.6,7.6-14.3,7.6-23.3v-94.3c0-22.3-7.7-42.8-16.7-56.2
	c-3.3-4.9-7.9-11.1-12-15.2c-5.5-5.5-19.5-18.2-26.3-19.8c0-26.9-23.9-44.5-47.1-44.5c-12.9,0-17.3,0.6-28.8,6.3
	c-12.6,6.2-23,19.5-23.6,34C90.9,59,85.2,55.8,72,68.1L54.6,87.4C44.4,101.7,36.2,123.6,36.2,141.8L36.2,141.8z"/>
</svg>
