<?xml version="1.0" encoding="UTF-8"?>
<!DOCTYPE svg PUBLIC "-//W3C//DTD SVG 1.1//EN" "http://www.w3.org/Graphics/SVG/1.1/DTD/svg11.dtd">
<!-- Creator: CorelDRAW 2018 (64-Bit) -->
<svg xmlns="http://www.w3.org/2000/svg" xml:space="preserve" width="163.335mm" height="180.6mm" version="1.1" style="shape-rendering:geometricPrecision; text-rendering:geometricPrecision; image-rendering:optimizeQuality; fill-rule:evenodd; clip-rule:evenodd"
viewBox="0 0 18647.46 20618.49"
 xmlns:xlink="http://www.w3.org/1999/xlink">
 <defs>
  <style type="text/css">
   <![CDATA[
    .fil0 {fill:black}
   ]]>
  </style>
 </defs>
 <g id="Layer_x0020_1">
  <metadata id="CorelCorpID_0Corel-Layer"/>
  <g id="_2393518047776">
   <path class="fil0" d="M12282.5 6040.57l0 -684.59c1157.47,0 1973.25,774.64 1973.25,1691.36l0 3463.26c0,820.6 -540.33,1664.44 -1224.47,2077.7 -380.81,230.05 -732.89,309.54 -1255.02,396.06 -606.32,100.47 -1064.3,89.11 -1064.3,788.15 0,282.07 336.88,552.49 672.64,515.36 290.08,-32.08 769.1,-125.66 1058.99,-193.19 0,235.34 -485.24,2525.44 -545.08,2837.64 -53.73,280.38 -30.92,171.81 -350.58,495.1 -153.13,154.86 -283.89,241.78 -443.37,402.31l-443.76 401.92c-150.88,145.23 -264.55,301.39 -432.09,413.59 0,-1355.48 159.82,-2408.69 -627.26,-3560.88 -341.06,-499.26 -685.98,-828.52 -1196.99,-1138.7 -180.63,-109.66 -447.23,-273.01 -666.53,-269.75 -633.99,9.41 -1511.23,893.55 -1858.82,1384.87 -313.55,443.16 -556.78,1109.39 -633.9,1701.78 -62.2,477.73 -10.05,1360.95 -10.05,1882.68l-1522.14 -1417.61c-136.32,-133.15 -105.46,-75.05 -147.66,-295.32 -95.2,-496.85 -181.31,-918.13 -279.96,-1411.4 -57.2,-286.01 -265.11,-1219.12 -265.11,-1426.24 469.69,109.43 1143.08,304.7 1491.02,81.56 195.99,-125.7 240.61,-309.54 240.61,-524.54 0,-538.92 -515.36,-575.95 -995.34,-655.75 -929.92,-154.62 -1601.7,-369.43 -2138.37,-1204.08 -189.78,-295.16 -410.1,-810.87 -410.1,-1281.26l0 -3382.73c0,-1058.37 827.46,-1771.89 1973.26,-1771.89 1234.25,0 2434.19,-27.69 3320.35,1149.67 761.3,1011.48 548.29,1799.37 676.28,2062.1 223.5,458.78 815.41,500.83 1078.83,51.51 190.59,-325.07 -117.74,-1740.3 1447.72,-2780.69 356.19,-236.71 844.7,-442.33 1369.84,-442.33 0,807.31 -159.05,1247.6 563.78,1731.63 -365.82,546.32 -1328.93,1058.67 -1328.93,1610.83 0,387.53 369.67,665.16 725.72,568.09 326.53,-89.02 1152.91,-1017.12 1438.82,-1303.03 279.65,-279.65 614.13,-482.94 614.13,-875.89 0,-563.15 -805.41,-828.71 -805.41,-1087.3zm-2568.14 14577.92l-161.5 0c-213.79,-29.31 -408.25,-174.36 -485.62,-409.08 -147.08,-446.15 73.23,-2881.35 -126.26,-3659.17 -121.23,-472.71 -331.37,-833.02 -675.4,-1177.05 -521.91,-521.93 -559.78,-504.41 -1087.47,20.12 -572.92,569.49 -734.93,1169.73 -734.83,2084.09 0.07,630.9 0,1261.81 0,1892.72 0,396.58 119.94,1248.38 -604.06,1248.38 -280.14,0 -453.29,-158.69 -695.48,-391.82l-1791.57 -1671.69c-88.6,-89.62 -149.44,-155.19 -240.46,-242.79 -104.58,-100.66 -158.77,-119.21 -263.38,-219.86 -82.66,-79.54 -167.71,-157.94 -242.01,-241.23 -158.91,-178.1 -184.65,-487.21 -240.42,-766.35l-489.96 -2449.78c-214.12,-1070.65 -91.05,-1010.03 -588.06,-1385.19 -694.93,-524.54 -1287.87,-1765.74 -1287.87,-2658.65l0 -3584.07c0,-438.9 141.44,-867.45 281.82,-1167.92 145.52,-311.5 377.86,-597.94 613.84,-835.91 907.4,-915.04 1860.95,-855.37 3010.58,-855.37 1445.73,0 2675.73,508.75 3510.32,1563.75 98.55,124.59 197.01,322.77 315.37,409.49 145.83,-97.65 200.92,-265.51 315.34,-409.53 60.47,-76.1 272.25,-307.13 347.79,-377.08 1328.1,-1229.93 2381.04,-1186.64 4129.06,-1186.64 1027.2,0 1881.42,563.28 2382.42,1241.92 85.33,115.58 216.45,322.93 275.51,449.36 140.37,300.46 281.81,729.01 281.81,1167.92l0 3584.07c0,501.56 -207.17,1137.09 -415.58,1557.68 -61.31,123.73 -127.04,199.91 -200.84,322.67 -581.53,967.29 -979.13,718.13 -1099.05,1357.44l-489.33 2450.42c-68.24,341.16 -215.91,1363.73 -401.5,1571.75l-2820.13 2616.4c-97,86.3 -209.36,135.38 -323.07,151z"/>
   <path class="fil0" d="M15222.24 2778.66c0,127.79 90.21,335.18 153.5,410.3 256.54,304.51 679.06,246.83 1004.84,-57.38 304.23,-284.1 1056.55,-970.3 1056.55,-1319.41 0,-362.93 -535.05,-947.95 -1117.91,-352.76 -324.82,331.68 -1096.97,981.53 -1096.97,1319.26z"/>
   <path class="fil0" d="M16067.92 4671.38c0,236.99 -11.2,337.18 147.87,496.45 86.08,86.2 222.02,188.15 375.65,188.15l1449.74 0c188.44,0 338.68,-65.46 433.59,-170.46 383.67,-424.39 85.01,-1037.65 -473.86,-1037.65l-1328.94 0c-311.28,0 -604.06,233.61 -604.06,523.51z"/>
   <path class="fil0" d="M13289.26 523.51l0 1530.28c0,631.4 1208.11,835.99 1208.11,-201.36 0,-969 181.66,-1852.44 -684.59,-1852.44 -246.94,0 -523.52,276.58 -523.52,523.51z"/>
  </g>
 </g>
</svg>
